# xmcd
# 
# Track frame offsets:
#     150
#     18192
#     40255
#     61705
#     76899
#     94993
#     111222
#     128865
#     147856
#     163852
#     181321
#     208022
#     225060
#     243030
#     257314
# 
# Disc length: 3678
# 
# Revision: 0
# Processed by: cddbd v1.5.2PL0 Copyright (c) Steve Scherf et al.
# Submitted via: fre:ac v1.0.27
# 
DISCID=b30e5c0f
DTITLE=Kenny Chesney - No Shoes, No Shirt, No Problem
DYEAR=2002
DGENRE=Country
TTITLE0=Young
TTITLE1=I Remember
TTITLE2=A Lot of Things Different
TTITLE3=The Good Stuff
TTITLE4=Big Star
TTITLE5=On The Coast of Somewhere Beautiful
TTITLE6=Never Gonna Feel Like That Again
TTITLE7=Dreams
TTITLE8=No Shoes, No Shirt, No Problem
TTITLE9=Live Those Songs
TTITLE10=One Step Up
TTITLE11=I Can't Go There (acoustic version)
TTITLE12=She Thinks My Tactor's Sexy
TTITLE13=Back Where I Come From
TTITLE14=How Forever Feels
EXTD=
EXTT0=
EXTT1=\n
EXTT2=
EXTT3=
EXTT4=
EXTT5=
EXTT6=
EXTT7=
EXTT8=
EXTT9=
EXTT10=
EXTT11=
EXTT12=
EXTT13=
EXTT14=
PLAYORDER=
